<?xml version="1.0" encoding="UTF-8"?>
<svg width="64" height="64" viewBox="0 0 64 64" fill="none" xmlns="http://www.w3.org/2000/svg">
  <!-- Icon Only Version: Heart + Chat Bubble -->
  <defs>
    <linearGradient id="heartGradient" x1="0%" y1="0%" x2="100%" y2="100%">
      <stop offset="0%" style="stop-color:#F4B8C5;stop-opacity:1" />
      <stop offset="100%" style="stop-color:#E8A0B8;stop-opacity:1" />
    </linearGradient>
  </defs>
  
  <!-- Chat Bubble Background - Subtle opacity for softer look -->
  <path d="M56 20C56 15.5817 52.4183 12 48 12H20C15.5817 12 12 15.5817 12 20V44C12 48.4183 15.5817 52 20 52H24V60L32 52H48C52.4183 52 56 48.4183 56 44V20Z" 
        fill="#64748B" opacity="0.15"/>
  
  <!-- Heart Shape (centered) -->
  <path d="M32 24C32 20.6863 34.6863 18 38 18C39.6569 18 41.1569 18.6716 42.2426 19.7574C43.3284 18.6716 44.8284 18 46.4853 18C49.799 18 52.4853 20.6863 52.4853 24C52.4853 25.3062 52.0615 26.512 51.3431 27.4853L42.2426 36.5858L33.1421 27.4853C32.4237 26.512 32 25.3062 32 24Z" 
        fill="url(#heartGradient)"
        transform="translate(-10, 6)"/>
  
  <!-- Small highlight on heart -->
  <circle cx="32" cy="30" r="2" fill="white" opacity="0.9"/>
</svg>
